<svg id="Layer_1" data-name="Layer 1" xmlns="http://www.w3.org/2000/svg" viewBox="0 0 90.85 83.45"><defs><style>.cls-1{fill:#bdc6c9;}.cls-2{fill:#1066af;opacity:0.35;}</style></defs><path id="Path_225" data-name="Path 225" class="cls-1" d="M45.43,74.42A32.7,32.7,0,1,1,78.12,41.71h0a32.72,32.72,0,0,1-32.69,32.7m0-63.76A31.08,31.08,0,1,0,76.5,41.74h0A31.1,31.1,0,0,0,45.43,10.66"/><path class="cls-2" d="M53.09,46.65A9.11,9.11,0,0,0,50.4,44V27.75a5,5,0,1,0-9.95-.17V44a9.14,9.14,0,1,0,12.64,2.7Zm-2.32,8.1a6,6,0,0,1-5.23,2.85l-.11.06a6,6,0,0,1-3.26-11l1.48-.93V30.94a1.82,1.82,0,0,1,1.83-1.83h0a1.83,1.83,0,0,1,1.84,1.83V45.65l1.48.92A5.94,5.94,0,0,1,50.77,54.75Z"/></svg>