<?xml version="1.0" standalone="no"?>
<!DOCTYPE svg PUBLIC "-//W3C//DTD SVG 20010904//EN"
 "http://www.w3.org/TR/2001/REC-SVG-20010904/DTD/svg10.dtd">
<svg version="1.0" xmlns="http://www.w3.org/2000/svg"
 width="310.000000pt" height="298.000000pt" viewBox="0 0 310.000000 298.000000"
 preserveAspectRatio="xMidYMid meet">

<g transform="translate(0.000000,298.000000) scale(0.100000,-0.100000)"
fill="#000000" stroke="none">
<path d="M1493 2598 c-38 -40 -93 -141 -93 -173 0 -47 70 -105 127 -105 39 1
109 34 122 58 17 31 13 68 -10 115 -30 59 -88 137 -103 137 -7 0 -26 -15 -43
-32z"/>
<path d="M1835 2571 c-22 -10 -53 -31 -68 -47 -52 -52 -61 -80 -67 -209 l-5
-120 -55 5 c-148 13 -278 -3 -385 -47 -282 -118 -465 -412 -442 -713 25 -328
237 -575 558 -654 l94 -23 17 -44 c9 -24 17 -49 17 -54 1 -6 -19 -22 -43 -37
-62 -37 -69 -74 -27 -155 16 -34 46 -78 66 -98 34 -37 36 -37 55 -20 10 9 36
41 56 71 l36 53 38 -25 c94 -63 250 -90 361 -64 141 33 256 125 320 255 38 76
42 93 47 180 8 167 -41 285 -167 395 l-61 54 0 552 c0 588 -1 606 -50 674 -12
17 -45 44 -73 60 -43 25 -63 30 -117 30 -42 0 -79 -7 -105 -19z m200 -111 c24
-23 37 -48 44 -82 7 -31 11 -255 11 -608 l0 -558 43 -25 c105 -62 177 -180
185 -302 22 -347 -383 -545 -636 -310 -192 177 -169 458 49 606 l59 40 0 587
c0 568 1 588 20 620 32 52 76 74 138 69 43 -3 59 -10 87 -37z m-405 -354 l65
-11 3 -408 2 -408 -27 -22 c-118 -95 -185 -200 -205 -320 -13 -77 -16 -78
-109 -51 -103 30 -189 83 -274 168 -91 91 -133 167 -165 292 -89 345 153 702
518 764 65 11 116 10 192 -4z"/>
<path d="M1892 2188 c-9 -9 -12 -138 -12 -520 0 -476 -1 -509 -17 -514 -96
-30 -163 -87 -202 -169 -33 -68 -34 -180 -4 -247 52 -115 154 -181 279 -182
121 -1 219 60 280 174 15 27 19 56 19 125 0 78 -4 97 -27 141 -40 77 -105 128
-200 158 -17 5 -18 38 -18 514 0 382 -3 511 -12 520 -7 7 -26 12 -43 12 -17 0
-36 -5 -43 -12z m35 -1093 c46 -32 33 -87 -27 -111 -48 -20 -76 -52 -91 -108
-20 -74 -67 -98 -109 -56 -24 24 -25 50 -6 113 19 64 67 121 128 151 60 30 76
32 105 11z"/>
<path d="M2360 2265 l0 -45 180 0 180 0 0 45 0 45 -180 0 -180 0 0 -45z"/>
<path d="M720 2251 c0 -58 31 -165 56 -192 23 -26 98 -26 141 1 52 31 78 108
57 165 -13 33 -135 75 -219 75 l-35 0 0 -49z"/>
<path d="M2360 2060 l0 -40 105 0 105 0 0 40 0 40 -105 0 -105 0 0 -40z"/>
<path d="M2360 1855 l0 -45 180 0 180 0 0 45 0 45 -180 0 -180 0 0 -45z"/>
<path d="M2360 1650 l0 -40 105 0 105 0 0 40 0 40 -105 0 -105 0 0 -40z"/>
<path d="M545 1604 c-44 -16 -132 -79 -149 -107 -9 -16 -5 -24 26 -51 79 -69
181 -103 218 -73 74 58 64 207 -16 237 -30 12 -29 12 -79 -6z"/>
<path d="M2360 1445 l0 -45 180 0 180 0 0 45 0 45 -180 0 -180 0 0 -45z"/>
<path d="M788 926 c-44 -33 -90 -231 -59 -251 18 -11 212 36 233 57 25 25 24
94 -2 136 -38 62 -128 92 -172 58z"/>
</g>
</svg>
