<svg id="Layer_1" data-name="Layer 1" xmlns="http://www.w3.org/2000/svg" xmlns:xlink="http://www.w3.org/1999/xlink" viewBox="0 0 101 101"><defs><style>.cls-1{fill:none;}.cls-2{clip-path:url(#clip-path);}.cls-3{fill:#1066af;}</style><clipPath id="clip-path"><rect class="cls-1" x="6.96" y="11.42" width="87.09" height="78.16"/></clipPath></defs><g id="Group_38" data-name="Group 38"><g class="cls-2"><g id="Group_38-2" data-name="Group 38-2"><path id="Path_227" data-name="Path 227" class="cls-3" d="M20.53,42.12h1.38A12.48,12.48,0,0,1,28.55,36a19.89,19.89,0,0,1,7.32-1.67,19.92,19.92,0,0,1,5.25-8.29,20.14,20.14,0,0,1,6.23-3.88A18.6,18.6,0,1,0,16.77,42.61a18.25,18.25,0,0,1,3.75-.48"/><path id="Path_228" data-name="Path 228" class="cls-3" d="M23.58,44.54a1.47,1.47,0,0,0,.1-.22,9.75,9.75,0,0,1,5.87-6.09,18.17,18.17,0,0,1,7.66-1.48c.3,0,.49,0,.58-.38A17.45,17.45,0,0,1,51.53,23.43a23.14,23.14,0,0,1,19.89,4.24,14.56,14.56,0,0,1,5.71,8.54c.08.39.28.44.6.48a21,21,0,0,1,10.68,4.38,14.41,14.41,0,0,1,5.48,9.27,14.21,14.21,0,0,1-2.25,10A19.39,19.39,0,0,1,78.7,69a20.86,20.86,0,0,1-4.24.4c-5.64,0-11.28,0-16.91,0H56.9l.27-.49,5.36-9.27.14-.25a1.55,1.55,0,0,0-.45-2.15,1.53,1.53,0,0,0-1-.25h-7c.28-.76.53-1.44.79-2.13l3-7.91c.54-1.43-.13-2.4-1.66-2.4H44.89A1.63,1.63,0,0,0,43,45.88S43,46,43,46q-2.41,9-4.82,18.09A1.61,1.61,0,0,0,39,66.2a1.72,1.72,0,0,0,.9.12h8.56l-.82,3.1H21.11a14.51,14.51,0,0,1-10.69-4.28A11.42,11.42,0,0,1,10.18,49a9.05,9.05,0,0,1,1-.89,14.73,14.73,0,0,1,9.43-3.56c1,0,1.94,0,3,0"/><path id="Path_229" data-name="Path 229" class="cls-3" d="M49,76.62Q50.52,71,52,65.3a1.58,1.58,0,0,0-.91-2,1.51,1.51,0,0,0-.73-.09H41.7c.27-1,.53-2,.79-3l3.18-12c.09-.38.22-.52.64-.52,2.51,0,5,0,7.53,0h.55c-.07.22-.12.38-.18.55-1.18,3.18-2.35,6.37-3.58,9.51A1.68,1.68,0,0,0,51.45,60a1.52,1.52,0,0,0,.84.15c2.07-.07,4.15,0,6.33,0L49.05,76.63l0,0"/><rect id="Rectangle_63" data-name="Rectangle 63" class="cls-3" x="16.34" y="75.71" width="3" height="13.88"/><rect id="Rectangle_64" data-name="Rectangle 64" class="cls-3" x="28.78" y="75.69" width="3" height="13.88"/><rect id="Rectangle_65" data-name="Rectangle 65" class="cls-3" x="69.22" y="75.69" width="3" height="13.88"/><rect id="Rectangle_66" data-name="Rectangle 66" class="cls-3" x="81.66" y="75.71" width="3" height="13.88"/></g></g></g></svg>