<svg id="Layer_1" data-name="Layer 1" xmlns="http://www.w3.org/2000/svg" viewBox="0 0 101 101"><defs><style>.cls-1{fill:#1066af;}</style></defs><path id="Path_204" data-name="Path 204" class="cls-1" d="M29.46,42.09A16.83,16.83,0,1,0,46.29,58.92h0A16.82,16.82,0,0,0,29.47,42.09Zm0,25.25a8.42,8.42,0,1,1,8.42-8.42h0A8.46,8.46,0,0,1,29.46,67.34Zm33.72-4.21A12.63,12.63,0,1,0,75.8,75.76v0A12.66,12.66,0,0,0,63.17,63.13Zm0,16.83a4.21,4.21,0,1,1,4.21-4.21h0A4.21,4.21,0,0,1,63.17,80Zm6.26-67.33A23.15,23.15,0,1,0,92.6,35.78,23.15,23.15,0,0,0,69.44,12.63Zm0,37.87A14.73,14.73,0,1,1,84.17,35.78h0A14.74,14.74,0,0,1,69.44,50.5Z"/></svg>