<svg id="Layer_1" data-name="Layer 1" xmlns="http://www.w3.org/2000/svg" xmlns:xlink="http://www.w3.org/1999/xlink" viewBox="0 0 101 101"><defs><style>.cls-1{fill:none;}.cls-2{clip-path:url(#clip-path);}.cls-3{fill:#1066af;}</style><clipPath id="clip-path"><rect class="cls-1" x="10.04" y="27.72" width="80.93" height="45.56"/></clipPath></defs><g id="Group_37" data-name="Group 37"><g class="cls-2"><g id="Group_36" data-name="Group 36"><path id="Path_226" data-name="Path 226" class="cls-3" d="M52,54.49c-.24,0-.48,0-.73,0v0H36a2.17,2.17,0,1,0,0,4.34h8v0h7.67l.24,0,.24,0h.48v0a5.06,5.06,0,1,1-4,8.87,2.17,2.17,0,0,0-3.65,2.34,2.07,2.07,0,0,0,.62.63l-.08.08A9.4,9.4,0,1,0,52,54.49M81.57,35a9.32,9.32,0,0,0-6.41,2.55l.06.06A2.17,2.17,0,0,0,77.82,41a2.33,2.33,0,0,0,.51-.53,5.06,5.06,0,1,1,3.24,8.91H70.72a2.17,2.17,0,1,0,0,4.34H81.57a9.4,9.4,0,1,0,0-18.8h0M59.89,27.72a9.38,9.38,0,0,0-6.41,2.54l.07.06a2.17,2.17,0,0,0,2.53,3.53,2.5,2.5,0,0,0,.57-.6A5,5,0,0,1,59.89,32a5.06,5.06,0,0,1,.72,10.07v.07H12.2a2.17,2.17,0,0,0,0,4.34h47v0c.24,0,.47,0,.72,0a9.4,9.4,0,1,0,0-18.8h0M18,34.23h25.2a1.5,1.5,0,0,0,1.5-1.5V31.39a1.5,1.5,0,0,0-1.5-1.5H18a1.5,1.5,0,0,0-1.49,1.5v1.35A1.5,1.5,0,0,0,18,34.24"/></g></g></g></svg>