<svg id="Layer_1" data-name="Layer 1" xmlns="http://www.w3.org/2000/svg" viewBox="0 0 90.85 83.45"><defs><style>.cls-1{fill:#bdc6c9;}.cls-2{fill:#1066af;opacity:0.35;}</style></defs><path id="Path_225" data-name="Path 225" class="cls-1" d="M45.43,74.42A32.7,32.7,0,1,1,78.12,41.71h0A32.72,32.72,0,0,1,45.44,74.42m0-63.76A31.08,31.08,0,1,0,76.5,41.75h0A31.11,31.11,0,0,0,45.43,10.66"/><path class="cls-2" d="M59.31,52.3a8.6,8.6,0,0,0-3.93-6.36A.7.7,0,0,1,55,45.3V26.08a4.39,4.39,0,0,0-8.17-2.45,5.24,5.24,0,0,0-.67,2.9v2.25l0,.14a14,14,0,0,0-5.27-.14h-.15A13.21,13.21,0,0,0,30.26,44.24,12.66,12.66,0,0,0,35.14,52a13.23,13.23,0,0,0,6.68,2.73.5.5,0,0,1,.31.22c.21.64.4,1.29.59,1.89-.38.19-.78.38-1.14.6A1.6,1.6,0,0,0,41,59.32a8.65,8.65,0,0,0,1.72,2.87c.48.58.62.65,1.12,0s1-1.34,1.46-2l.21.14a8.56,8.56,0,0,0,9.8.34A8.77,8.77,0,0,0,59.31,52.3ZM41.88,53a.38.38,0,0,0,0,.15l0-.07a12.54,12.54,0,0,1-1.81-.34,11.42,11.42,0,1,1,6.1-22V45.36a.77.77,0,0,1-.39.72A8.57,8.57,0,0,0,41.88,53Zm11.88,6.58A7,7,0,0,1,47.61,47a.64.64,0,0,0,.38-.67V26a2.72,2.72,0,0,1,2.22-2.82,2.66,2.66,0,0,1,3,2.18,24.7,24.7,0,0,1,.06,2.72V36.2l.1,0V46.37a.55.55,0,0,0,.34.55,7,7,0,0,1,0,12.61Z"/><path id="Path_263" data-name="Path 263" class="cls-2" d="M43.21,26.53a2.63,2.63,0,0,1-2.16-1.19,1.31,1.31,0,0,1-.19-1.18,8.84,8.84,0,0,1,1.87-3c.42-.43.57-.43,1,0a9.35,9.35,0,0,1,1.87,3,1.72,1.72,0,0,1-1.1,2.05,9.07,9.07,0,0,1-1.26.36"/><path id="Path_264" data-name="Path 264" class="cls-2" d="M28.3,55.71a10.86,10.86,0,0,1,.79-3.16A1.71,1.71,0,0,1,31,51.73a2.66,2.66,0,0,1,2.18,3.07h0a.21.21,0,0,0,0,.11,1.43,1.43,0,0,1-.92,1c-1,.26-2,.54-3.06.72-.71.12-.88-.08-.88-.91"/><path id="Path_265" data-name="Path 265" class="cls-2" d="M33.23,29.12a2.66,2.66,0,0,1-2.64,2.6H30.3a1.4,1.4,0,0,1-1.1-.79,9.29,9.29,0,0,1-.79-3.44c0-.48.1-.63.56-.62a9.17,9.17,0,0,1,3.61.84,1.54,1.54,0,0,1,.74,1.48"/><path id="Path_266" data-name="Path 266" class="cls-2" d="M28,41.73a2.48,2.48,0,0,1-.86,1.94A1.48,1.48,0,0,1,25.4,44a9.22,9.22,0,0,1-2.83-1.72c-.45-.43-.47-.55,0-1a8.58,8.58,0,0,1,3.05-1.87,1.74,1.74,0,0,1,1.83.78,2.71,2.71,0,0,1,.48,1.59"/><rect id="Rectangle_77" data-name="Rectangle 77" class="cls-2" x="58.37" y="26.63" width="6.65" height="1.68"/><rect id="Rectangle_78" data-name="Rectangle 78" class="cls-2" x="58.38" y="34.14" width="6.63" height="1.7"/><rect id="Rectangle_79" data-name="Rectangle 79" class="cls-2" x="58.37" y="41.68" width="6.65" height="1.68"/><rect id="Rectangle_80" data-name="Rectangle 80" class="cls-2" x="58.37" y="30.38" width="3.81" height="1.7"/><rect id="Rectangle_81" data-name="Rectangle 81" class="cls-2" x="58.37" y="37.9" width="3.83" height="1.7"/><path id="Path_267" data-name="Path 267" class="cls-2" d="M49.48,28.57h2.24v19.1a5.61,5.61,0,1,1-2.24,0ZM46.05,53.05a1,1,0,0,0,.65,1.12A1,1,0,0,0,47.89,54c.34-.3.31-.73.43-1.1a4.68,4.68,0,0,1,.58-1.29,2.24,2.24,0,0,1,1.36-.81,1.12,1.12,0,0,0-.55-2.15,4.64,4.64,0,0,0-3.66,4.4"/></svg>