<svg id="Layer_1" data-name="Layer 1" xmlns="http://www.w3.org/2000/svg" viewBox="0 0 90.85 83.45"><defs><style>.cls-1{fill:#bdc6c9;}.cls-2{opacity:0.35;}.cls-3{fill:#1066af;}</style></defs><path id="Path_225" data-name="Path 225" class="cls-1" d="M45.43,74.42A32.7,32.7,0,1,1,78.12,41.71h0A32.72,32.72,0,0,1,45.44,74.42m0-63.76A31.08,31.08,0,1,0,76.5,41.75h0A31.11,31.11,0,0,0,45.43,10.66"/><g class="cls-2"><g id="Group_58" data-name="Group 58"><path id="Path_268" data-name="Path 268" class="cls-3" d="M25.18,50.46a13.47,13.47,0,0,1,.91-2.89c1.87-3.52,3.88-7,5.84-10.45.36-.66.84-.88,1.34-.12a55.47,55.47,0,0,1,6.26,11.72A7.22,7.22,0,0,1,35.16,58a7.11,7.11,0,0,1-1.7.39,7.53,7.53,0,0,1-8.26-6.72h0a7.36,7.36,0,0,1,0-1.15m7.49-12.2a52.82,52.82,0,0,0-5.94,10.93A6,6,0,0,0,29,56.06a6.26,6.26,0,0,0,7.18,0,5.94,5.94,0,0,0,2.28-6.86,57.46,57.46,0,0,0-5.77-10.94"/><path id="Path_269" data-name="Path 269" class="cls-3" d="M50.84,50.75a18.41,18.41,0,0,1,.57-2.33A58.58,58.58,0,0,1,57.56,37c.42-.64.85-.65,1.28,0A57.33,57.33,0,0,1,65.22,48.8a6.78,6.78,0,0,1-2,7.67,7,7,0,0,1-7.84,1.36,7.53,7.53,0,0,1-4.54-7.07M58.2,38.22c-.56.91-1.12,1.59-1.59,2.48-1.45,3-3,6-4.31,9a5.55,5.55,0,0,0,2.36,6.38,6.23,6.23,0,0,0,7.08,0,5.82,5.82,0,0,0,2.52-6.22A48,48,0,0,0,58.2,38.25"/><path id="Path_270" data-name="Path 270" class="cls-3" d="M52.83,39.72a7.19,7.19,0,0,1-4.51,6.52,6.94,6.94,0,0,1-7.85-1.31,6.72,6.72,0,0,1-2-7.56,53.84,53.84,0,0,1,6.46-12c.4-.62.84-.5,1.21,0a58.31,58.31,0,0,1,6.38,11.91,7.11,7.11,0,0,1,.3,1.29c0,.35.08.7.1,1m-7.29-12.9a51.89,51.89,0,0,0-6,11,5.67,5.67,0,0,0,1.42,6,5.83,5.83,0,0,0,6.09,1.59,6,6,0,0,0,4.36-7.19v0a2.19,2.19,0,0,0-.17-.59,54.26,54.26,0,0,0-5.71-10.78"/><path id="Path_271" data-name="Path 271" class="cls-3" d="M27.56,50.83a16.47,16.47,0,0,1,.65-2.31c.91-2,1.85-4,2.86-6,.16-.32.67-.47,1-.69a3.89,3.89,0,0,1,0,1.18c-.88,2-1.84,3.87-2.71,5.82a4.49,4.49,0,0,0,1.91,6.06,4.14,4.14,0,0,0,.76.3c.32.13.5.57.74.86-.39,0-.8.32-1.13.22a5.86,5.86,0,0,1-4.1-5.43"/><path id="Path_272" data-name="Path 272" class="cls-3" d="M53.1,50.83a18.79,18.79,0,0,1,.67-2.33c.89-2,1.85-4,2.84-6,.16-.32.62-.48.92-.74,0,.42.26.89.1,1.23-.88,1.86-1.71,3.71-2.57,5.52a4.51,4.51,0,0,0,1.5,6.17,4.09,4.09,0,0,0,1.16.49c.27.13.42.56.62.84-.35.1-.73.32-1,.24A5.86,5.86,0,0,1,53.1,50.8"/><path id="Path_273" data-name="Path 273" class="cls-3" d="M49.4,35.33a5.51,5.51,0,0,1-.54.73c-2.11,2.12-4.21,4.24-6.38,6.38-.24.22-.73.21-1.1.29.08-.37,0-.86.29-1.1,2.09-2.15,4.21-4.26,6.38-6.38a1.78,1.78,0,0,1,.94-.38c.09,0,.25.29.43.49"/><path id="Path_274" data-name="Path 274" class="cls-3" d="M49.35,41.09a1.82,1.82,0,0,1-1.75,1.8,1.73,1.73,0,0,1-.16-3.45h0a1.81,1.81,0,0,1,1.83,1.71"/><path id="Path_275" data-name="Path 275" class="cls-3" d="M42.9,38.41a1.75,1.75,0,0,1-1.77-1.74h0a1.71,1.71,0,0,1,1.59-1.75,1.73,1.73,0,0,1,1.83,1.59h0a1.79,1.79,0,0,1-1.7,1.83"/></g></g></svg>