<svg id="Layer_1" data-name="Layer 1" xmlns="http://www.w3.org/2000/svg" viewBox="0 0 90.85 83.45"><defs><style>.cls-1{fill:#bdc6c9;}.cls-2{opacity:0.35;}.cls-3{fill:#1066af;}</style></defs><path id="Path_225" data-name="Path 225" class="cls-1" d="M45.43,74.42A32.7,32.7,0,1,1,78.12,41.71h0a32.72,32.72,0,0,1-32.69,32.7m0-63.76A31.08,31.08,0,1,0,76.5,41.74h0A31.1,31.1,0,0,0,45.43,10.66"/><g class="cls-2"><g id="Group_50" data-name="Group 50"><path id="Path_232" data-name="Path 232" class="cls-3" d="M47.52,41.83V43.1c1.11.28,2.2.5,3.25.83a9.27,9.27,0,0,1,4.09,2.31,4.46,4.46,0,0,1,.28,6.29h0l-.28.28a9.67,9.67,0,0,1-4.53,2.55A16.68,16.68,0,0,1,39.48,55,11,11,0,0,1,36,52.77a4.3,4.3,0,0,1-.42-6.07h0l.39-.39a10.87,10.87,0,0,1,5.7-2.88c.51-.11,1-.19,1.58-.28V41.53a2.53,2.53,0,0,1-2.17-1.09c-.41-.47-.79-.31-1.18.08-1.37,1.37-2.28,1.37-3.66,0-.46-.45-.79-.42-1.25,0a4.05,4.05,0,0,1-1.38.93,2.07,2.07,0,0,1-2.18-.8c-.62-.68-.76-.6-1.45,0a4.72,4.72,0,0,1-1.65.85,1.15,1.15,0,0,1-.77-.62c-.1-.28.3-.56.53-.77s.71-.4,1-.67a2.1,2.1,0,0,1,2.95-.3h0a1.77,1.77,0,0,1,.3.31c.8.8.85.8,1.57,0a2.07,2.07,0,0,1,2.91-.35h0a2.27,2.27,0,0,1,.31.31c.84.82.85.82,1.57,0a2.1,2.1,0,0,1,2.94-.34h0a1.45,1.45,0,0,1,.38.36,2.28,2.28,0,0,0,.38.38A.92.92,0,0,0,43,40c.08,0,.16-.3.18-.45V37.94c0-.91-.18-1.08-1.1-1.08H28.92c-1,0-1.46-.22-1.4-.79.1-.83.79-.7,1.37-.7h13.3a2.29,2.29,0,0,1,2.62,1.9h0a2.58,2.58,0,0,1,0,.68v4.95c0,1.26-.42,1.57-1.57,1.92a32.74,32.74,0,0,0-4.32,1.35,11.53,11.53,0,0,0-2.09,1.43l.59.74a.55.55,0,0,0,.74.18h0a.52.52,0,0,0,.19-.17c.16-.17.28-.36.44-.53a2,2,0,0,1,2.79-.45l0,0h0a1.8,1.8,0,0,1,.39.39,4.35,4.35,0,0,1,.34.41c.4.54.76.51,1.18,0a4.49,4.49,0,0,1,1.21-1,2,2,0,0,1,2.41.71c.86,1,.86,1,1.71,0a2,2,0,0,1,2.77-.57l.05,0a1.82,1.82,0,0,1,.56.51c.88,1,1,1,1.79-.21a6.78,6.78,0,0,0-3.14-2.06,23.07,23.07,0,0,0-3.36-.88,1.57,1.57,0,0,1-1.59-1.55h0V37.65a2.23,2.23,0,0,1,2-2.4H62.24c.55,0,1.1,0,1.12.74s-.55.77-1.1.77H48.87c-1.23,0-1.32.09-1.32,1.34v1.3c0,.43.11.5.19.52a1,1,0,0,0,.61-.19,2.28,2.28,0,0,0,.38-.38,2.1,2.1,0,0,1,3-.3l0,0a3.07,3.07,0,0,1,.25.26c.87.85.87.85,1.7,0a2.08,2.08,0,0,1,2.92-.3h0a1.52,1.52,0,0,1,.33.34c.79.8.84.8,1.65,0a2.1,2.1,0,0,1,3-.3h0a2.06,2.06,0,0,1,.3.29c.28.28.71.4,1,.66s.55.56.5.81-.53.63-.71.57A4.69,4.69,0,0,1,61,40.6c-.73-.58-.84-.64-1.45,0a2.13,2.13,0,0,1-3,.57l0,0h0a2.25,2.25,0,0,1-.56-.55c-.59-.6-.78-.6-1.36,0a2.16,2.16,0,0,1-3,.56,2,2,0,0,1-.55-.56c-.62-.62-.76-.55-1.4,0a20.71,20.71,0,0,1-2.06,1.27m7.13,7.32c-1.38,1.2-2.4,1.12-3.52-.19-.66-.78-.77-.78-1.46,0a2.08,2.08,0,0,1-2.83.74,2.18,2.18,0,0,1-.74-.74c-.7-.83-.8-.83-1.57,0a2.06,2.06,0,0,1-2.81.73,2.13,2.13,0,0,1-.71-.69c-.75-.88-.8-.88-1.57,0a2.05,2.05,0,0,1-2.8.67,1.61,1.61,0,0,1-.47-.39l-.35-.13a8.58,8.58,0,0,0,.32,1.42,4.31,4.31,0,0,0,2.23,2.29A14.6,14.6,0,0,0,52.07,53a7.64,7.64,0,0,0,2.09-1.79,2.26,2.26,0,0,0,.48-2"/><path id="Path_233" data-name="Path 233" class="cls-3" d="M39.2,27.49a2.67,2.67,0,0,1,2.22,1.29c.67,1.27,1.29,2.56,1.84,3.9a.69.69,0,0,1-.17,1l-.06,0h0a.72.72,0,0,1-.61,0A35.45,35.45,0,0,1,38,32.2a2.58,2.58,0,0,1-1.33-3,2.46,2.46,0,0,1,2.57-1.73m2,4.46.19-.2A14.83,14.83,0,0,0,40,29.51a2,2,0,0,0-1.38-.37c-.19,0-.6.5-.55.67a2.09,2.09,0,0,0,.8,1.19,15,15,0,0,0,2.34.89"/><path id="Path_234" data-name="Path 234" class="cls-3" d="M51.63,27.49a2.46,2.46,0,0,1,2.58,1.57A2.55,2.55,0,0,1,53,32.11a35.62,35.62,0,0,1-4.6,1.57.69.69,0,0,1-.87-.45h0a.75.75,0,0,1,.06-.55c.57-1.33,1.2-2.67,1.89-4a2.51,2.51,0,0,1,2.15-1.23M49.51,31.7l.16.16c.64-.22,1.32-.39,1.95-.67a2.2,2.2,0,0,0,1-.7,1.27,1.27,0,0,0,0-1.11c-.13-.24-.65-.36-1-.35a1.19,1.19,0,0,0-.85.44c-.47.71-.85,1.48-1.28,2.23"/><path id="Path_235" data-name="Path 235" class="cls-3" d="M48,27.11a6.37,6.37,0,0,1-.26.95c-.52,1.11-1,2.25-1.57,3.33-.33.64-1,.74-1.34.14a36.31,36.31,0,0,1-1.86-4,2.13,2.13,0,0,1,1-2.53,2.41,2.41,0,0,1,2.69-.27,2.63,2.63,0,0,1,1.46,2.4m-2.7,2.38h.2l.88-2a.92.92,0,0,0-.34-1.24h0a1.36,1.36,0,0,0-1.18,0,1.4,1.4,0,0,0-.38,1.2,13.27,13.27,0,0,0,.87,2.1"/><path id="Path_236" data-name="Path 236" class="cls-3" d="M61,51.46a2.36,2.36,0,1,1,2.33-2.39A2.36,2.36,0,0,1,61,51.46h0m1-2.07V49c-.33-.24-.66-.66-1-.65a1.22,1.22,0,0,0-.81.77.72.72,0,0,0,.52.85H61c.35,0,.65-.39,1-.61"/><path id="Path_237" data-name="Path 237" class="cls-3" d="M58.9,54a2.36,2.36,0,1,1-2.33,2.39v0h0A2.34,2.34,0,0,1,58.89,54h0m1,2.51v-.37a3.2,3.2,0,0,0-1-.62.71.71,0,0,0-.84.54.51.51,0,0,0,0,.3,1.16,1.16,0,0,0,.81.78c.31,0,.66-.41,1-.64"/><path id="Path_238" data-name="Path 238" class="cls-3" d="M29.66,51.27A2.18,2.18,0,1,1,31.8,49h0a2.19,2.19,0,0,1-2.19,2.16m0-1.2c.33-.47.68-.75.65-1a1,1,0,0,0-.68-.63A.94.94,0,0,0,29,49c0,.24.31.54.61,1"/><path id="Path_239" data-name="Path 239" class="cls-3" d="M31,58.49a2.26,2.26,0,1,1,.06,0h0m1.09-2.14c-.46-.33-.71-.64-1-.66s-.66.39-.63.57a.92.92,0,0,0,.59.69c.23,0,.53-.3,1-.6"/><path id="Path_240" data-name="Path 240" class="cls-3" d="M29.53,42.72c.33.51.73.84.66,1.07s-.48.5-.75.74c-.22-.25-.61-.5-.63-.79s.36-.53.72-1"/><path id="Path_241" data-name="Path 241" class="cls-3" d="M34.75,53.14c-.47.38-.71.71-1,.79a.62.62,0,0,1-.74-.42.48.48,0,0,1,0-.29,1.07,1.07,0,0,1,.67-.69c.25,0,.57.32,1.07.63"/><path id="Path_242" data-name="Path 242" class="cls-3" d="M51.48,56.29c.34.5.7.8.67,1.05a1,1,0,0,1-.69.72.61.61,0,0,1-.72-.47.57.57,0,0,1,0-.26c0-.3.38-.55.74-1"/><path id="Path_243" data-name="Path 243" class="cls-3" d="M54.37,59.05c-.35-.48-.74-.81-.69-1s.47-.52.74-.77c.23.25.62.48.66.77s-.35.55-.71,1"/><path id="Path_244" data-name="Path 244" class="cls-3" d="M61.54,44.67c-.29.19-.59.55-.85.52a.71.71,0,0,1-.68-.71.69.69,0,0,1,.71-.67h0c.25,0,.55.33.83.53v.33"/><path id="Path_245" data-name="Path 245" class="cls-3" d="M35.74,57.25c-.19-.29-.53-.62-.48-.87s.45-.48.7-.72c.24.25.63.5.66.79s-.36.55-.56.83h-.32"/><path id="Path_246" data-name="Path 246" class="cls-3" d="M33.37,43.67c-.28.2-.57.58-.82.56a.69.69,0,0,1-.58-.78h0a.7.7,0,0,1,.58-.58c.25,0,.57.32.87.49a1.71,1.71,0,0,0,0,.32"/><path id="Path_247" data-name="Path 247" class="cls-3" d="M57,44.06c-.16-.28-.51-.61-.46-.87s.47-.47.72-.69c.24.25.62.51.63.77s-.36.54-.56.82H57"/><path id="Path_248" data-name="Path 248" class="cls-3" d="M39.66,58.28c-.19-.26-.57-.55-.55-.8a.68.68,0,0,1,.8-.56.69.69,0,0,1,.56.56c0,.25-.29.57-.47.85h-.34"/></g></g></svg>