<?xml version="1.0" standalone="no"?>
<!DOCTYPE svg PUBLIC "-//W3C//DTD SVG 20010904//EN"
 "http://www.w3.org/TR/2001/REC-SVG-20010904/DTD/svg10.dtd">
<svg version="1.0" xmlns="http://www.w3.org/2000/svg"
 width="310.000000pt" height="298.000000pt" viewBox="0 0 310.000000 298.000000"
 preserveAspectRatio="xMidYMid meet">

<g transform="translate(0.000000,298.000000) scale(0.100000,-0.100000)"
fill="#000000" stroke="none">
<path d="M1445 2328 c-88 -136 -213 -373 -281 -533 -36 -85 -38 -96 -39 -195
0 -99 2 -110 32 -171 42 -85 129 -169 220 -211 164 -77 369 -35 498 103 92 98
131 232 105 361 -22 111 -165 411 -300 629 -121 194 -118 194 -235 17z m183
-79 c83 -131 158 -275 224 -424 52 -118 52 -121 53 -220 0 -89 -3 -105 -27
-150 -32 -61 -98 -129 -150 -156 -158 -81 -318 -52 -440 79 -84 91 -112 192
-84 303 22 87 176 396 272 547 43 67 81 122 84 122 3 0 34 -45 68 -101z"/>
<path d="M1715 1871 c-16 -10 -112 -102 -212 -203 -146 -147 -183 -190 -183
-211 0 -23 4 -27 28 -27 23 0 64 37 235 208 114 114 207 213 207 218 0 13 -21
34 -34 34 -6 0 -24 -9 -41 -19z"/>
<path d="M1335 1856 c-28 -29 -40 -66 -31 -102 25 -100 177 -100 202 0 9 36
-3 73 -31 102 -18 18 -35 24 -70 24 -35 0 -52 -6 -70 -24z"/>
<path d="M1609 1591 c-50 -51 -36 -136 29 -167 72 -34 147 17 147 99 0 31 -7
45 -33 68 -45 41 -102 40 -143 0z"/>
<path d="M778 1773 c-9 -10 -74 -121 -145 -248 -258 -457 -268 -480 -261 -612
4 -69 10 -93 41 -156 59 -118 135 -186 259 -228 51 -17 80 -20 158 -17 81 3
105 8 162 35 169 79 267 265 238 448 -23 142 -257 607 -383 761 -32 38 -47 42
-69 17z m120 -235 c90 -150 139 -245 208 -404 47 -105 48 -113 49 -204 0 -81
-4 -102 -25 -145 -33 -67 -108 -140 -178 -173 -49 -23 -70 -27 -147 -27 -77 0
-98 4 -147 27 -79 37 -142 98 -180 175 -27 55 -32 76 -32 141 0 67 5 89 38
167 82 195 296 575 325 575 5 0 45 -60 89 -132z"/>
<path d="M731 1453 c-32 -30 -178 -331 -205 -423 -21 -72 -20 -128 5 -195 42
-112 173 -216 253 -201 35 7 36 8 21 29 -8 12 -41 36 -72 53 -101 53 -150 142
-141 254 4 43 25 97 96 249 59 124 92 206 92 227 0 41 -11 43 -49 7z"/>
<path d="M2284 1782 c-18 -12 -137 -197 -203 -318 -85 -153 -175 -355 -196
-439 -88 -351 320 -652 635 -468 69 40 153 130 185 198 37 79 46 207 20 287
-49 152 -198 441 -325 631 -72 107 -92 126 -116 109z m86 -198 c79 -122 185
-326 246 -474 41 -100 48 -124 47 -185 0 -133 -80 -252 -211 -313 -49 -23 -70
-27 -147 -27 -77 0 -98 4 -147 27 -178 83 -252 259 -182 436 60 149 311 632
329 632 2 0 31 -43 65 -96z"/>
<path d="M2233 1462 c-30 -23 -188 -352 -213 -444 -23 -84 -17 -145 20 -219
28 -55 101 -126 153 -149 46 -21 102 -26 112 -10 11 19 -23 58 -57 65 -19 5
-52 28 -84 60 -61 61 -91 138 -80 209 4 22 47 128 96 234 66 141 90 203 90
232 0 44 -5 47 -37 22z"/>
</g>
</svg>
