<?xml version="1.0" standalone="no"?>
<!DOCTYPE svg PUBLIC "-//W3C//DTD SVG 20010904//EN"
 "http://www.w3.org/TR/2001/REC-SVG-20010904/DTD/svg10.dtd">
<svg version="1.0" xmlns="http://www.w3.org/2000/svg"
 width="310.000000pt" height="298.000000pt" viewBox="0 0 310.000000 298.000000"
 preserveAspectRatio="xMidYMid meet">

<g transform="translate(0.000000,298.000000) scale(0.100000,-0.100000)"
fill="#000000" stroke="none">
<path d="M1446 2644 c-35 -11 -66 -32 -106 -72 -93 -94 -90 -70 -90 -688 l0
-532 -49 -36 c-89 -65 -168 -190 -196 -308 -54 -229 38 -468 229 -596 100 -67
194 -96 316 -96 241 0 438 134 527 360 25 63 27 81 27 199 0 118 -2 136 -27
199 -35 88 -105 187 -167 234 l-48 37 -4 540 -3 540 -26 56 c-52 111 -144 172
-264 176 -43 2 -89 -4 -119 -13z m165 -367 c18 -12 39 -34 46 -47 10 -19 13
-141 13 -505 l0 -481 64 -42 c108 -71 161 -147 186 -266 23 -114 -18 -235
-111 -327 -131 -130 -329 -143 -478 -34 -107 79 -157 188 -149 324 8 130 64
224 182 301 l66 42 0 477 c0 533 -1 528 70 563 46 24 70 23 111 -5z"/>
</g>
</svg>
