<?xml version="1.0" standalone="no"?>
<!DOCTYPE svg PUBLIC "-//W3C//DTD SVG 20010904//EN"
 "http://www.w3.org/TR/2001/REC-SVG-20010904/DTD/svg10.dtd">
<svg version="1.0" xmlns="http://www.w3.org/2000/svg"
 width="310.000000pt" height="298.000000pt" viewBox="0 0 310.000000 298.000000"
 preserveAspectRatio="xMidYMid meet">

<g transform="translate(0.000000,298.000000) scale(0.100000,-0.100000)"
fill="#000000" stroke="none">
<path d="M1469 2657 c-67 -36 -92 -78 -87 -152 3 -49 16 -85 70 -196 36 -75
73 -139 82 -142 34 -13 58 16 124 151 56 114 66 145 66 188 0 67 -35 123 -96
153 -57 27 -104 27 -159 -2z m136 -112 c14 -13 25 -30 25 -37 -1 -22 -67 -172
-78 -176 -17 -5 -75 146 -67 177 16 63 76 81 120 36z"/>
<path d="M1045 2456 c-104 -38 -139 -176 -67 -265 33 -41 106 -74 270 -123
166 -49 185 -31 121 113 -71 163 -110 229 -148 255 -47 30 -124 39 -176 20z
m131 -128 c24 -24 94 -136 94 -150 0 -15 -40 -8 -102 17 -102 41 -144 95 -112
143 14 21 21 24 57 19 23 -3 50 -15 63 -29z"/>
<path d="M1927 2455 c-62 -22 -86 -52 -159 -202 -71 -147 -80 -185 -46 -207
19 -12 127 16 273 71 130 49 165 89 165 186 0 68 -28 113 -90 145 -50 25 -88
27 -143 7z m114 -116 c24 -24 19 -61 -13 -96 -19 -20 -154 -73 -186 -73 -17 0
52 131 87 166 30 31 83 32 112 3z"/>
<path d="M332 1918 c-7 -7 -12 -25 -12 -40 0 -21 6 -31 26 -38 15 -6 226 -10
529 -10 l504 0 15 -22 c16 -23 23 -149 10 -182 -10 -25 -38 -19 -70 15 -74 78
-164 80 -234 4 -46 -49 -55 -50 -102 -7 -55 50 -78 62 -123 62 -43 0 -81 -18
-115 -55 -46 -49 -55 -50 -102 -7 -24 22 -53 44 -65 51 -37 19 -97 13 -134
-14 -19 -13 -45 -32 -59 -41 -41 -29 -80 -67 -80 -79 0 -7 9 -20 19 -29 27
-24 66 -14 136 35 31 21 59 39 64 39 4 0 20 -14 37 -31 40 -43 76 -59 128 -59
35 0 54 7 89 34 80 61 78 61 145 11 94 -71 130 -70 216 4 26 23 53 41 60 41 7
0 25 -14 42 -31 37 -40 75 -59 114 -59 l31 0 -3 -62 -3 -62 -110 -22 c-175
-37 -352 -137 -430 -244 -86 -117 -65 -293 47 -396 100 -92 209 -149 364 -191
91 -25 114 -27 289 -27 175 0 198 2 289 27 160 43 268 101 359 191 67 68 91
125 91 221 1 131 -48 210 -191 305 -74 50 -174 87 -330 125 l-73 17 0 42 0 42
95 62 c104 69 106 69 160 13 61 -65 144 -62 221 8 24 23 48 41 54 41 6 0 30
-18 53 -40 73 -70 161 -74 222 -9 49 50 62 54 98 26 44 -33 112 -67 135 -67
11 0 25 7 32 15 22 27 3 63 -57 102 -31 21 -68 46 -82 55 -52 35 -112 22 -185
-41 l-48 -41 -27 19 c-15 11 -34 27 -41 36 -53 64 -156 57 -225 -15 -36 -38
-54 -38 -90 0 -77 80 -165 79 -249 -5 -34 -34 -57 -29 -69 15 -14 53 0 158 23
170 12 6 210 10 527 10 383 0 512 3 521 12 18 18 15 75 -4 82 -9 3 -249 6
-535 6 -570 0 -550 2 -603 -60 l-26 -32 0 -246 c1 -257 2 -267 45 -289 11 -6
79 -25 150 -43 154 -38 236 -74 302 -134 l48 -44 -29 -31 c-17 -17 -34 -31
-39 -31 -6 0 -34 22 -62 49 -86 81 -144 81 -230 1 -28 -28 -56 -50 -60 -50 -4
0 -32 22 -60 50 -86 80 -141 80 -225 0 -29 -28 -57 -50 -63 -50 -5 0 -34 22
-62 49 -85 81 -162 79 -232 -5 -21 -24 -44 -44 -53 -44 -18 0 -70 50 -70 67 0
19 130 98 206 126 40 14 116 38 170 53 132 35 151 46 163 92 6 20 11 129 11
242 0 194 -1 208 -23 250 -42 83 -20 80 -617 80 -396 0 -529 -3 -538 -12z
m922 -932 c52 -55 73 -66 131 -66 43 0 51 5 104 55 32 30 61 55 65 55 3 0 28
-23 55 -52 46 -49 51 -52 109 -56 l61 -4 60 57 61 58 54 -51 c30 -28 66 -54
80 -58 38 -9 91 1 125 25 38 27 41 27 41 -9 0 -52 -24 -92 -93 -157 -184 -171
-536 -234 -834 -147 -204 59 -325 146 -358 257 -15 51 -19 77 -10 77 2 0 21
-11 41 -25 26 -18 50 -25 83 -25 52 0 76 14 129 72 19 21 39 38 44 38 6 0 29
-20 52 -44z"/>
<path d="M2342 1410 c-26 -25 -27 -29 -6 -58 18 -27 36 -28 57 -4 22 24 21 45
-1 65 -23 21 -24 21 -50 -3z"/>
<path d="M432 1388 c-26 -28 -28 -51 -6 -72 20 -21 30 -20 54 4 25 25 25 33
-3 65 l-22 26 -23 -23z"/>
<path d="M636 1397 c-12 -9 -17 -23 -14 -42 2 -25 8 -30 34 -33 21 -2 36 4 49
18 20 22 20 22 -8 46 -32 28 -37 29 -61 11z"/>
<path d="M2572 1328 c-17 -17 -15 -53 4 -68 18 -16 61 -4 78 22 22 36 -51 77
-82 46z"/>
<path d="M2553 1119 c-57 -28 -83 -72 -83 -140 0 -98 60 -159 156 -159 66 0
111 29 142 92 18 37 22 56 17 86 -9 58 -40 101 -88 122 -54 25 -92 25 -144 -1z
m121 -116 l29 -27 -32 -28 c-49 -43 -101 -34 -101 19 0 27 33 63 58 63 9 0 30
-12 46 -27z"/>
<path d="M417 1116 c-70 -25 -97 -66 -97 -145 0 -144 194 -194 270 -69 26 43
26 113 0 155 -34 56 -109 82 -173 59z m75 -113 c24 -21 23 -29 -6 -64 l-25
-29 -22 31 c-18 25 -20 35 -10 55 12 28 37 31 63 7z"/>
<path d="M710 720 c-54 -54 13 -97 75 -48 l28 22 -27 23 c-33 28 -50 29 -76 3z"/>
<path d="M2396 617 c-73 -45 -96 -138 -56 -217 38 -75 151 -104 220 -58 57 39
75 72 75 138 0 92 -54 150 -147 157 -43 3 -60 0 -92 -20z m123 -103 c17 -14
31 -30 31 -34 0 -5 -16 -21 -35 -36 -33 -25 -36 -26 -60 -10 -33 22 -42 61
-20 86 24 27 47 25 84 -6z"/>
<path d="M493 609 c-30 -15 -48 -33 -62 -63 -26 -52 -26 -79 -1 -134 48 -106
213 -105 264 2 36 75 9 156 -64 194 -55 27 -83 28 -137 1z m111 -110 l27 -21
-32 -24 c-24 -17 -36 -21 -50 -14 -39 21 -31 80 11 80 9 0 29 -9 44 -21z"/>
<path d="M872 500 c-26 -25 -27 -33 -6 -65 21 -32 37 -32 58 0 21 32 20 48 -2
68 -23 21 -24 21 -50 -3z"/>
<path d="M1943 450 c-25 -31 -29 -60 -11 -78 17 -17 42 -15 61 6 23 25 21 46
-5 76 l-23 25 -22 -29z"/>
<path d="M1136 437 c-39 -29 1 -106 42 -81 24 16 28 65 6 81 -10 7 -21 13 -24
13 -3 0 -14 -6 -24 -13z"/>
<path d="M2141 386 c-24 -26 -20 -48 15 -76 14 -13 19 -11 35 9 24 29 24 53 1
74 -24 22 -24 22 -51 -7z"/>
</g>
</svg>
