<?xml version="1.0" standalone="no"?>
<!DOCTYPE svg PUBLIC "-//W3C//DTD SVG 20010904//EN"
 "http://www.w3.org/TR/2001/REC-SVG-20010904/DTD/svg10.dtd">
<svg version="1.0" xmlns="http://www.w3.org/2000/svg"
 width="310.000000pt" height="298.000000pt" viewBox="0 0 310.000000 298.000000"
 preserveAspectRatio="xMidYMid meet">

<g transform="translate(0.000000,298.000000) scale(0.100000,-0.100000)"
fill="#000000" stroke="none">
<path d="M1240 2454 c-6 -14 -10 -83 -10 -153 0 -140 8 -165 51 -159 l24 3 3
154 c2 104 -1 158 -9 167 -19 23 -49 17 -59 -12z"/>
<path d="M2318 2340 c-58 -10 -185 -67 -192 -87 -8 -19 11 -53 28 -53 8 0 45
15 82 33 63 29 77 32 164 32 86 0 101 -3 164 -33 72 -34 101 -34 111 -2 9 28
1 37 -57 66 -90 45 -197 61 -300 44z"/>
<path d="M783 2213 c-25 -10 -12 -56 35 -124 26 -37 55 -71 65 -75 22 -7 47
12 47 37 0 34 -114 177 -133 168 -1 0 -8 -3 -14 -6z"/>
<path d="M1724 2212 c-28 -18 -104 -138 -104 -163 0 -29 23 -44 46 -31 23 13
114 143 114 163 0 10 -9 23 -19 29 -23 12 -23 12 -37 2z"/>
<path d="M2303 2153 c-25 -13 -33 -23 -33 -44 0 -40 15 -44 76 -23 52 18 57
18 103 1 27 -9 54 -17 59 -17 15 0 33 36 27 53 -17 43 -166 63 -232 30z"/>
<path d="M1120 2085 c-207 -57 -384 -242 -419 -439 -23 -128 -5 -259 51 -374
44 -90 149 -195 246 -246 86 -44 122 -44 122 2 0 24 -9 31 -71 61 -127 61
-229 183 -264 316 -72 278 104 550 395 611 333 69 645 -229 591 -565 -16 -96
-11 -114 26 -109 23 2 29 11 41 48 17 59 18 201 2 270 -43 184 -190 346 -371
410 -84 29 -267 37 -349 15z"/>
<path d="M2366 2024 c-9 -8 -16 -23 -16 -33 0 -21 30 -51 52 -51 19 0 48 32
48 53 0 21 -27 47 -50 47 -10 0 -26 -7 -34 -16z"/>
<path d="M378 1845 c-10 -11 5 -64 21 -70 86 -33 262 -84 274 -79 9 3 18 12
21 20 13 34 -14 51 -146 92 -129 41 -159 47 -170 37z"/>
<path d="M2325 1781 c-83 -22 -155 -78 -202 -158 -31 -53 -43 -170 -24 -239
26 -95 121 -188 219 -214 l42 -11 0 -270 0 -270 -25 -24 -24 -25 -553 0 c-518
0 -556 2 -594 19 -167 76 -131 313 53 351 32 7 61 17 65 24 4 6 5 32 2 57 -4
30 0 67 11 105 14 48 27 69 75 116 93 91 197 109 315 52 45 -21 111 -94 131
-144 l16 -40 94 6 c92 7 95 6 160 -26 102 -50 152 -131 153 -247 1 -52 -5 -72
-34 -129 -40 -76 -43 -100 -16 -109 28 -9 44 2 74 48 91 139 66 343 -54 452
-71 64 -140 90 -240 90 l-86 0 -29 49 c-34 57 -68 87 -138 124 -46 24 -62 26
-156 27 -92 0 -111 -3 -155 -24 -109 -54 -195 -183 -195 -293 0 -55 -1 -58
-27 -64 -207 -50 -273 -314 -115 -456 76 -69 79 -69 710 -66 548 3 561 3 588
24 15 11 37 33 48 48 20 26 21 43 24 311 l3 284 54 15 c77 23 146 82 184 157
27 54 31 72 31 144 0 71 -4 90 -31 143 -33 68 -67 101 -141 138 -54 27 -159
40 -213 25z m183 -94 c76 -35 131 -124 132 -212 0 -148 -145 -267 -286 -236
-128 29 -214 157 -190 284 15 80 103 167 189 187 43 10 103 1 155 -23z"/>
<path d="M2315 1644 c-45 -23 -66 -45 -86 -89 -24 -52 -24 -92 0 -104 24 -13
46 4 55 43 4 16 22 44 41 63 27 27 41 33 74 33 55 0 107 -45 118 -102 10 -48
33 -68 57 -49 46 38 -7 166 -86 207 -36 19 -135 18 -173 -2z"/>
<path d="M569 1344 c-84 -26 -104 -42 -94 -74 9 -28 51 -25 145 8 77 28 95 47
70 77 -16 20 -31 18 -121 -11z"/>
<path d="M874 1042 c-23 -15 -174 -235 -174 -253 0 -26 37 -44 57 -28 28 24
173 231 173 248 0 32 -31 50 -56 33z"/>
<path d="M1904 1040 c-29 -11 -37 -26 -29 -50 6 -18 14 -20 63 -18 93 3 134
-28 157 -117 10 -35 14 -40 40 -40 28 0 30 3 33 42 5 68 -39 138 -110 174 -39
20 -116 24 -154 9z"/>
</g>
</svg>
